# This file uses centimeters as units for non-parametric coordinates.

v -0.323349 -0.189621 0.361328
v -0.139497 -0.189621 0.434947
v 0.000000 -0.189621 0.434947
v 0.139497 -0.189621 0.434947
v 0.323349 -0.189621 0.361328
v -0.450474 -0.092672 0.452923
v -0.250000 -0.092672 0.545205
v 0.000000 -0.092672 0.545205
v 0.250000 -0.092672 0.545205
v 0.450474 -0.092672 0.452923
v -0.461379 0.058577 0.477559
v -0.250000 0.058577 0.574860
v 0.000000 0.058577 0.574860
v 0.250000 0.058577 0.574860
v 0.461379 0.058577 0.477559
v -0.416451 0.248849 0.339190
v -0.266317 0.248849 0.408299
v 0.000000 0.248849 0.408299
v 0.266317 0.248849 0.408299
v 0.416451 0.248849 0.339190
v -0.293443 0.504811 0.215513
v -0.186716 0.504811 0.259423
v 0.000000 0.504811 0.259423
v 0.186716 0.504811 0.259423
v 0.293443 0.504811 0.215513
v -0.331841 0.504811 0.129712
v 0.331841 0.504811 0.129712
v -0.331841 0.504811 0.000000
v 0.331841 0.504811 0.000000
v -0.331841 0.504811 -0.129712
v 0.331841 0.504811 -0.129712
v -0.293443 0.504811 -0.212052
v -0.186716 0.504811 -0.259423
v 0.000000 0.504811 -0.259423
v 0.186716 0.504811 -0.259423
v 0.293443 0.504811 -0.212052
v -0.416451 0.248849 -0.333743
v -0.266317 0.248849 -0.408299
v 0.000000 0.248849 -0.408299
v 0.266317 0.248849 -0.408299
v 0.416451 0.248849 -0.333743
v -0.461379 0.058577 -0.469890
v -0.250000 0.058577 -0.574860
v 0.000000 0.058577 -0.574860
v 0.250000 0.058577 -0.574860
v 0.461379 0.058577 -0.469890
v -0.450474 -0.092672 -0.445649
v -0.250000 -0.092672 -0.545205
v 0.000000 -0.092672 -0.545205
v 0.250000 -0.092672 -0.545205
v 0.450474 -0.092672 -0.445649
v -0.323349 -0.189621 -0.355525
v -0.139497 -0.189621 -0.434947
v 0.000000 -0.189621 -0.434947
v 0.139497 -0.189621 -0.434947
v 0.323349 -0.189621 -0.355525
v -0.389497 -0.189621 -0.217473
v -0.250000 -0.243921 -0.250000
v 0.000000 -0.243921 -0.250000
v 0.250000 -0.243921 -0.250000
v 0.389497 -0.189621 -0.217473
v -0.389497 -0.189621 0.000000
v -0.250000 -0.243921 0.000000
v 0.000000 -0.243921 0.000000
v 0.250000 -0.243921 0.000000
v 0.389497 -0.189621 0.000000
v -0.389497 -0.189621 0.217473
v -0.250000 -0.243921 0.250000
v 0.000000 -0.243921 0.250000
v 0.250000 -0.243921 0.250000
v 0.389497 -0.189621 0.217473
v 0.522602 -0.092672 -0.272602
v 0.522602 -0.092672 0.000000
v 0.522602 -0.092672 0.272602
v 0.537430 0.058577 -0.287430
v 0.537430 0.058577 0.000000
v 0.537430 0.058577 0.287430
v 0.470467 0.248849 -0.204150
v 0.470467 0.248849 0.000000
v 0.470467 0.248849 0.204150
v -0.522602 -0.092672 -0.272602
v -0.522602 -0.092672 0.000000
v -0.522602 -0.092672 0.272602
v -0.537430 0.058577 -0.287430
v -0.537430 0.058577 0.000000
v -0.537430 0.058577 0.287430
v -0.470467 0.248849 -0.204150
v -0.470467 0.248849 0.000000
v -0.470467 0.248849 0.204150
v -0.082804 0.838871 0.122128
v 0.000000 0.838871 0.122128
v 0.082804 0.838871 0.122128
v 0.115236 0.838871 0.101457
v 0.156319 0.838871 0.061064
v 0.156319 0.838871 0.000000
v 0.156319 0.838871 -0.061064
v -0.156319 0.838871 -0.061064
v -0.156319 0.838871 0.000000
v -0.156319 0.838871 0.061064
v -0.115236 0.838871 0.101457
v 0.082804 0.838871 -0.122128
v 0.115236 0.838871 -0.099827
v 0.000000 0.838871 -0.122128
v -0.082804 0.838871 -0.122128
v -0.115236 0.838871 -0.099827
v 0.000000 0.955116 0.042049
v -0.064098 0.955116 0.042049
v -0.064098 0.955116 0.084098
v 0.000000 0.955116 0.084098
v 0.084641 0.955116 0.042049
v 0.064098 0.955116 0.042049
v 0.064098 0.955116 0.084098
v 0.084641 0.955116 0.069863
v 0.112104 0.955116 0.042049
v 0.084641 0.955116 -0.042049
v 0.064098 0.955116 -0.042049
v 0.064098 0.955116 -0.000000
v 0.084641 0.955116 -0.000000
v 0.112104 0.955116 -0.000000
v 0.112104 0.955116 -0.042049
v 0.000000 0.955116 -0.042049
v -0.064098 0.955116 -0.042049
v -0.064098 0.955116 -0.000000
v 0.000000 0.955116 -0.000000
v -0.084641 0.955116 -0.042049
v -0.112104 0.955116 -0.042049
v -0.112104 0.955116 -0.000000
v -0.084641 0.955116 -0.000000
v -0.084641 0.955116 0.042049
v -0.112104 0.955116 0.042049
v -0.084641 0.955116 0.069863
v 0.064098 0.955116 -0.084098
v 0.084641 0.955116 -0.068741
v 0.000000 0.955116 -0.084098
v -0.064098 0.955116 -0.084098
v -0.084641 0.955116 -0.068741
vt 0.375000 0.000000
vt 0.437500 0.000000
vt 0.500000 0.000000
vt 0.562500 0.000000
vt 0.625000 0.000000
vt 0.375000 0.062500
vt 0.437500 0.062500
vt 0.500000 0.062500
vt 0.562500 0.062500
vt 0.625000 0.062500
vt 0.375000 0.125000
vt 0.437500 0.125000
vt 0.500000 0.125000
vt 0.562500 0.125000
vt 0.625000 0.125000
vt 0.375000 0.187500
vt 0.437500 0.187500
vt 0.500000 0.187500
vt 0.562500 0.187500
vt 0.625000 0.187500
vt 0.375000 0.250000
vt 0.437500 0.250000
vt 0.500000 0.250000
vt 0.562500 0.250000
vt 0.625000 0.250000
vt 0.375000 0.500000
vt 0.437500 0.500000
vt 0.500000 0.500000
vt 0.562500 0.500000
vt 0.625000 0.500000
vt 0.375000 0.562500
vt 0.437500 0.562500
vt 0.500000 0.562500
vt 0.562500 0.562500
vt 0.625000 0.562500
vt 0.375000 0.625000
vt 0.437500 0.625000
vt 0.500000 0.625000
vt 0.562500 0.625000
vt 0.625000 0.625000
vt 0.375000 0.687500
vt 0.437500 0.687500
vt 0.500000 0.687500
vt 0.562500 0.687500
vt 0.625000 0.687500
vt 0.375000 0.750000
vt 0.437500 0.750000
vt 0.500000 0.750000
vt 0.562500 0.750000
vt 0.625000 0.750000
vt 0.375000 0.812500
vt 0.437500 0.812500
vt 0.500000 0.812500
vt 0.562500 0.812500
vt 0.625000 0.812500
vt 0.375000 0.875000
vt 0.437500 0.875000
vt 0.500000 0.875000
vt 0.562500 0.875000
vt 0.625000 0.875000
vt 0.375000 0.937500
vt 0.437500 0.937500
vt 0.500000 0.937500
vt 0.562500 0.937500
vt 0.625000 0.937500
vt 0.375000 1.000000
vt 0.437500 1.000000
vt 0.500000 1.000000
vt 0.562500 1.000000
vt 0.625000 1.000000
vt 0.875000 0.000000
vt 0.812500 0.000000
vt 0.750000 0.000000
vt 0.687500 0.000000
vt 0.875000 0.062500
vt 0.812500 0.062500
vt 0.750000 0.062500
vt 0.687500 0.062500
vt 0.875000 0.125000
vt 0.812500 0.125000
vt 0.750000 0.125000
vt 0.687500 0.125000
vt 0.875000 0.187500
vt 0.812500 0.187500
vt 0.750000 0.187500
vt 0.687500 0.187500
vt 0.875000 0.250000
vt 0.812500 0.250000
vt 0.750000 0.250000
vt 0.687500 0.250000
vt 0.125000 0.000000
vt 0.187500 0.000000
vt 0.250000 0.000000
vt 0.312500 0.000000
vt 0.125000 0.062500
vt 0.187500 0.062500
vt 0.250000 0.062500
vt 0.312500 0.062500
vt 0.125000 0.125000
vt 0.187500 0.125000
vt 0.250000 0.125000
vt 0.312500 0.125000
vt 0.125000 0.187500
vt 0.187500 0.187500
vt 0.250000 0.187500
vt 0.312500 0.187500
vt 0.125000 0.250000
vt 0.187500 0.250000
vt 0.250000 0.250000
vt 0.312500 0.250000
vt 0.500000 0.375000
vt 0.359333 0.304667
vt 0.640667 0.304667
vt 0.278929 0.264464
vt 0.721071 0.264464
vt 0.662305 0.408541
vt 0.601583 0.402333
vt 0.500000 0.437500
vt 0.398417 0.402333
vt 0.184771 0.255617
vt 0.663249 0.255759
vt 0.601583 0.277333
vt 0.500000 0.312500
vt 0.398417 0.277333
vt 0.336751 0.255759
vt 0.437500 0.250000
vt 0.500000 0.250000
vt 0.562500 0.250000
vt 0.625000 0.250000
vt 0.687500 0.250000
vt 0.750000 0.250000
vt 0.812500 0.250000
vt 0.187500 0.250000
vt 0.250000 0.250000
vt 0.312500 0.250000
vt 0.375000 0.250000
vt 0.625000 0.500000
vt 0.562500 0.500000
vt 0.500000 0.500000
vt 0.437500 0.500000
vt 0.125000 0.250000
vt 0.437500 0.250000
vt 0.500000 0.250000
vt 0.562500 0.250000
vt 0.625000 0.250000
vt 0.687500 0.250000
vt 0.750000 0.250000
vt 0.812500 0.250000
vt 0.187500 0.250000
vt 0.250000 0.250000
vt 0.312500 0.250000
vt 0.375000 0.250000
vt 0.625000 0.500000
vt 0.562500 0.500000
vt 0.500000 0.500000
vt 0.437500 0.500000
vt 0.125000 0.250000
vn -0.225901 -0.821644 0.523326
vn -0.093116 -0.786984 0.609907
vn -0.200220 -0.498091 0.843693
vn -0.359460 -0.487166 0.795901
vn 0.000000 -0.750975 0.660331
vn 0.000000 -0.453989 0.891007
vn 0.093116 -0.786984 0.609907
vn 0.200220 -0.498091 0.843693
vn 0.225901 -0.821644 0.523326
vn 0.359460 -0.487166 0.795901
vn -0.165296 0.343737 0.924404
vn -0.397807 0.308053 0.864207
vn 0.000000 0.378833 0.925465
vn 0.165296 0.343737 0.924403
vn 0.397807 0.308053 0.864207
vn -0.157424 0.592258 0.790220
vn -0.335596 0.577266 0.744406
vn 0.000000 0.582353 0.812936
vn 0.157424 0.592258 0.790220
vn 0.335596 0.577266 0.744406
vn -0.118411 0.524143 0.843358
vn -0.338180 0.543050 0.768591
vn 0.000000 0.502774 0.864418
vn 0.118411 0.524143 0.843358
vn 0.338180 0.543050 0.768590
vn -0.360006 0.543327 -0.758414
vn -0.128249 0.525578 -0.841023
vn -0.169471 0.591781 -0.788083
vn -0.358324 0.573218 -0.736902
vn 0.000000 0.502774 -0.864418
vn 0.000000 0.582353 -0.812936
vn 0.128249 0.525578 -0.841023
vn 0.169471 0.591781 -0.788083
vn 0.360006 0.543327 -0.758414
vn 0.358324 0.573218 -0.736902
vn -0.177089 0.341875 -0.922909
vn -0.423719 0.304038 -0.853243
vn 0.000000 0.378833 -0.925465
vn 0.177089 0.341875 -0.922909
vn 0.423719 0.304038 -0.853243
vn -0.214648 -0.499057 -0.839565
vn -0.381344 -0.491639 -0.782859
vn 0.000000 -0.453989 -0.891007
vn 0.214648 -0.499057 -0.839565
vn 0.381344 -0.491639 -0.782859
vn -0.100866 -0.789554 -0.605335
vn -0.239203 -0.823979 -0.513653
vn 0.000000 -0.750975 -0.660331
vn 0.100866 -0.789554 -0.605335
vn 0.239203 -0.823979 -0.513653
vn -0.256724 -0.920324 -0.295121
vn -0.042074 -0.957540 -0.285213
vn -0.130469 -0.985101 -0.112044
vn -0.338558 -0.937791 -0.076981
vn 0.000000 -0.959501 -0.281705
vn 0.000000 -0.994289 -0.106725
vn 0.042074 -0.957540 -0.285213
vn 0.130469 -0.985101 -0.112044
vn 0.256724 -0.920324 -0.295121
vn 0.338558 -0.937791 -0.076981
vn -0.132277 -0.991213 0.000000
vn -0.362741 -0.931890 0.000000
vn 0.000000 -1.000000 0.000000
vn 0.132277 -0.991213 0.000000
vn 0.362741 -0.931890 0.000000
vn -0.129602 -0.985300 0.111299
vn -0.335654 -0.938813 0.077241
vn 0.000000 -0.994289 0.106725
vn 0.129602 -0.985300 0.111299
vn 0.335654 -0.938813 0.077241
vn -0.043162 -0.957892 0.283865
vn -0.249465 -0.924947 0.286776
vn 0.000000 -0.959501 0.281705
vn 0.043162 -0.957892 0.283865
vn 0.249465 -0.924947 0.286776
vn 0.557967 -0.825277 -0.087126
vn 0.499788 -0.837176 -0.222143
vn 0.798520 -0.496903 -0.339783
vn 0.861951 -0.486104 -0.144027
vn 0.588749 -0.808316 0.000000
vn 0.873927 -0.486058 0.000000
vn 0.558403 -0.825154 0.085478
vn 0.861605 -0.487362 0.141831
vn 0.502918 -0.837291 0.214517
vn 0.805310 -0.493339 0.328775
vn 0.912188 0.152821 -0.380210
vn 0.969666 0.162026 -0.183018
vn 0.990599 0.136797 0.000000
vn 0.970236 0.162058 0.179941
vn 0.917954 0.150133 0.367179
vn 0.809398 0.476501 -0.343253
vn 0.889117 0.436720 -0.136918
vn 0.914477 0.404638 0.000000
vn 0.889491 0.436567 0.134960
vn 0.815442 0.474296 0.331809
vn 0.778495 0.527928 -0.339466
vn 0.854199 0.503387 -0.130174
vn 0.879322 0.476228 0.000000
vn 0.854716 0.503085 0.127932
vn 0.783724 0.527465 0.327961
vn -0.499788 -0.837176 -0.222143
vn -0.557967 -0.825277 -0.087126
vn -0.861951 -0.486104 -0.144027
vn -0.798520 -0.496903 -0.339783
vn -0.588749 -0.808316 0.000000
vn -0.873927 -0.486058 0.000000
vn -0.558403 -0.825154 0.085478
vn -0.861605 -0.487362 0.141831
vn -0.502918 -0.837291 0.214517
vn -0.805310 -0.493339 0.328775
vn -0.969666 0.162026 -0.183018
vn -0.912188 0.152821 -0.380210
vn -0.990599 0.136797 0.000000
vn -0.970236 0.162058 0.179941
vn -0.917954 0.150133 0.367179
vn -0.889117 0.436720 -0.136918
vn -0.809398 0.476501 -0.343253
vn -0.914477 0.404638 0.000000
vn -0.889491 0.436567 0.134960
vn -0.815442 0.474297 0.331809
vn -0.854199 0.503387 -0.130174
vn -0.778495 0.527928 -0.339466
vn -0.879322 0.476228 0.000000
vn -0.854716 0.503085 0.127932
vn -0.783724 0.527465 0.327961
vn 0.000000 1.000000 -0.000000
vn 0.000000 1.000000 -0.000000
vn 0.000000 1.000000 -0.000002
vn 0.000000 1.000000 -0.000000
vn 0.000000 1.000000 0.000000
vn 0.000000 1.000000 0.000000
vn 0.000000 1.000000 0.000001
vn 0.000000 1.000000 0.000000
vn 0.000000 1.000000 0.000000
vn 0.000000 1.000000 0.000000
vn 0.000000 1.000000 0.000000
vn 0.000000 1.000000 -0.000000
vn 0.000000 1.000000 0.000000
vn 0.000000 1.000000 0.000000
vn 0.000000 1.000000 0.000000
vn 0.000000 1.000000 0.000000
vn 0.000000 1.000000 0.000000
vn 0.000000 1.000000 0.000000
vn 0.000000 1.000000 0.000000
vn 0.000000 1.000000 0.000000
vn 0.000000 1.000000 0.000000
vn 0.000000 1.000000 0.000000
vn 0.000000 1.000000 0.000000
vn 0.000000 1.000000 0.000000
vn 0.000000 1.000000 0.000000
vn 0.000000 1.000000 0.000000
vn 0.000000 1.000000 0.000000
vn 0.000000 1.000000 0.000000
vn 0.000000 1.000000 0.000000
vn 0.000000 1.000000 0.000000
vn 0.000000 1.000000 0.000000
vn -0.166536 0.423757 0.890334
vn 0.000000 0.380136 0.924930
vn 0.000000 0.369487 0.929236
vn -0.131005 0.404422 0.905141
vn 0.166536 0.423758 0.890334
vn 0.373636 0.460656 0.805104
vn 0.388817 0.449507 0.804217
vn 0.131005 0.404422 0.905141
vn 0.727577 0.510522 0.458256
vn 0.835818 0.501605 0.223161
vn 0.843344 0.485850 0.229611
vn 0.718808 0.484808 0.498274
vn 0.885245 0.465126 0.000000
vn 0.835119 0.501409 -0.226196
vn 0.842278 0.485850 -0.233492
vn 0.893547 0.448969 0.000000
vn -0.835119 0.501409 -0.226196
vn -0.885245 0.465126 0.000000
vn -0.893547 0.448969 0.000000
vn -0.842278 0.485850 -0.233492
vn -0.835818 0.501605 0.223161
vn -0.727577 0.510522 0.458256
vn -0.718808 0.484808 0.498273
vn -0.843344 0.485850 0.229610
vn -0.373636 0.460656 0.805104
vn -0.388817 0.449507 0.804217
vn 0.396711 0.463436 -0.792368
vn 0.178178 0.426361 -0.886831
vn 0.141625 0.406839 -0.902454
vn 0.412764 0.451692 -0.790949
vn 0.719674 0.508892 -0.472332
vn 0.709744 0.482473 -0.513307
vn 0.000000 0.380136 -0.924930
vn 0.000000 0.369487 -0.929236
vn -0.178178 0.426361 -0.886831
vn -0.141625 0.406839 -0.902454
vn -0.719674 0.508892 -0.472332
vn -0.709744 0.482473 -0.513306
vn -0.396711 0.463436 -0.792368
vn -0.412764 0.451692 -0.790949
vn 0.000000 0.310939 0.950430
vn -0.155433 0.330935 0.930765
vn 0.516565 0.344315 0.783969
vn 0.155434 0.330935 0.930764
vn 0.858829 0.381206 0.342191
vn 0.659072 0.356255 0.662349
vn 0.856558 0.381287 -0.347749
vn 0.934671 0.355513 0.000000
vn -0.934671 0.355513 0.000000
vn -0.856558 0.381287 -0.347749
vn -0.659072 0.356254 0.662350
vn -0.858829 0.381206 0.342191
vn -0.516565 0.344315 0.783969
vn 0.168139 0.332221 -0.928094
vn 0.544230 0.343012 -0.765608
vn 0.645987 0.353645 -0.676488
vn 0.000000 0.310939 -0.950430
vn -0.168139 0.332221 -0.928094
vn -0.645987 0.353645 -0.676488
vn -0.544231 0.343012 -0.765608
f 1/1/1 2/2/2 7/7/3 6/6/4
f 2/2/2 3/3/5 8/8/6 7/7/3
f 3/3/5 4/4/7 9/9/8 8/8/6
f 4/4/7 5/5/9 10/10/10 9/9/8
f 6/6/4 7/7/3 12/12/11 11/11/12
f 7/7/3 8/8/6 13/13/13 12/12/11
f 8/8/6 9/9/8 14/14/14 13/13/13
f 9/9/8 10/10/10 15/15/15 14/14/14
f 11/11/12 12/12/11 17/17/16 16/16/17
f 12/12/11 13/13/13 18/18/18 17/17/16
f 13/13/13 14/14/14 19/19/19 18/18/18
f 14/14/14 15/15/15 20/20/20 19/19/19
f 16/16/17 17/17/16 22/22/21 21/21/22
f 17/17/16 18/18/18 23/23/23 22/22/21
f 18/18/18 19/19/19 24/24/24 23/23/23
f 19/19/19 20/20/20 25/25/25 24/24/24
f 32/26/26 33/27/27 38/32/28 37/31/29
f 33/27/27 34/28/30 39/33/31 38/32/28
f 34/28/30 35/29/32 40/34/33 39/33/31
f 35/29/32 36/30/34 41/35/35 40/34/33
f 37/31/29 38/32/28 43/37/36 42/36/37
f 38/32/28 39/33/31 44/38/38 43/37/36
f 39/33/31 40/34/33 45/39/39 44/38/38
f 40/34/33 41/35/35 46/40/40 45/39/39
f 42/36/37 43/37/36 48/42/41 47/41/42
f 43/37/36 44/38/38 49/43/43 48/42/41
f 44/38/38 45/39/39 50/44/44 49/43/43
f 45/39/39 46/40/40 51/45/45 50/44/44
f 47/41/42 48/42/41 53/47/46 52/46/47
f 48/42/41 49/43/43 54/48/48 53/47/46
f 49/43/43 50/44/44 55/49/49 54/48/48
f 50/44/44 51/45/45 56/50/50 55/49/49
f 52/46/51 53/47/52 58/52/53 57/51/54
f 53/47/52 54/48/55 59/53/56 58/52/53
f 54/48/55 55/49/57 60/54/58 59/53/56
f 55/49/57 56/50/59 61/55/60 60/54/58
f 57/51/54 58/52/53 63/57/61 62/56/62
f 58/52/53 59/53/56 64/58/63 63/57/61
f 59/53/56 60/54/58 65/59/64 64/58/63
f 60/54/58 61/55/60 66/60/65 65/59/64
f 62/56/62 63/57/61 68/62/66 67/61/67
f 63/57/61 64/58/63 69/63/68 68/62/66
f 64/58/63 65/59/64 70/64/69 69/63/68
f 65/59/64 66/60/65 71/65/70 70/64/69
f 67/61/67 68/62/66 2/67/71 1/66/72
f 68/62/66 69/63/68 3/68/73 2/67/71
f 69/63/68 70/64/69 4/69/74 3/68/73
f 70/64/69 71/65/70 5/70/75 4/69/74
f 61/72/76 56/71/77 51/75/78 72/76/79
f 66/73/80 61/72/76 72/76/79 73/77/81
f 71/74/82 66/73/80 73/77/81 74/78/83
f 5/5/84 71/74/82 74/78/83 10/10/85
f 72/76/79 51/75/78 46/79/86 75/80/87
f 73/77/81 72/76/79 75/80/87 76/81/88
f 74/78/83 73/77/81 76/81/88 77/82/89
f 10/10/85 74/78/83 77/82/89 15/15/90
f 75/80/87 46/79/86 41/83/91 78/84/92
f 76/81/88 75/80/87 78/84/92 79/85/93
f 77/82/89 76/81/88 79/85/93 80/86/94
f 15/15/90 77/82/89 80/86/94 20/20/95
f 78/84/92 41/83/91 36/87/96 31/88/97
f 79/85/93 78/84/92 31/88/97 29/89/98
f 80/86/94 79/85/93 29/89/98 27/90/99
f 20/20/95 80/86/94 27/90/99 25/25/100
f 52/91/101 57/92/102 81/96/103 47/95/104
f 57/92/102 62/93/105 82/97/106 81/96/103
f 62/93/105 67/94/107 83/98/108 82/97/106
f 67/94/107 1/1/109 6/6/110 83/98/108
f 47/95/104 81/96/103 84/100/111 42/99/112
f 81/96/103 82/97/106 85/101/113 84/100/111
f 82/97/106 83/98/108 86/102/114 85/101/113
f 83/98/108 6/6/110 11/11/115 86/102/114
f 42/99/112 84/100/111 87/104/116 37/103/117
f 84/100/111 85/101/113 88/105/118 87/104/116
f 85/101/113 86/102/114 89/106/119 88/105/118
f 86/102/114 11/11/115 16/16/120 89/106/119
f 37/103/117 87/104/116 30/108/121 32/107/122
f 87/104/116 88/105/118 28/109/123 30/108/121
f 88/105/118 89/106/119 26/110/124 28/109/123
f 89/106/119 16/16/120 21/21/125 26/110/124
f 106/123/126 107/124/127 108/142/128 109/143/129
f 110/121/130 111/122/131 112/144/132 113/145/133 114/146/134
f 115/116/135 116/117/136 117/113/137 118/115/138 119/147/139 120/148/140
f 121/118/141 122/119/142 123/112/143 124/111/144
f 125/120/145 126/149/146 127/150/147 128/114/148 123/112/143 122/119/142
f 129/125/149 130/151/150 131/152/151 108/142/128 107/124/127
f 116/117/136 121/118/141 124/111/144 117/113/137
f 112/144/132 111/122/131 106/123/126 109/143/129
f 133/153/152 132/154/153 116/117/136 115/116/135 120/148/140
f 134/155/154 121/118/141 116/117/136 132/154/153
f 134/155/154 135/156/155 122/119/142 121/118/141
f 136/157/156 126/149/146 125/120/145 122/119/142 135/156/155
f 118/115/138 117/113/137 111/122/131 110/121/130 114/146/134 119/147/139
f 106/123/126 111/122/131 117/113/137 124/111/144
f 124/111/144 123/112/143 107/124/127 106/123/126
f 128/114/148 127/150/147 130/151/150 129/125/149 107/124/127 123/112/143
f 22/22/157 23/23/158 91/127/159 90/126/160
f 24/24/161 25/25/162 93/129/163 92/128/164
f 25/25/165 27/90/166 94/130/167 93/129/168
f 29/89/169 31/88/170 96/132/171 95/131/172
f 30/108/173 28/109/174 98/134/175 97/133/176
f 26/110/177 21/21/178 100/136/179 99/135/180
f 21/21/181 22/22/157 90/126/160 100/136/182
f 23/23/158 24/24/161 92/128/164 91/127/159
f 36/30/183 35/29/184 101/138/185 102/137/186
f 31/88/170 36/30/187 102/137/188 96/132/171
f 35/29/184 34/28/189 103/139/190 101/138/185
f 34/28/189 33/27/191 104/140/192 103/139/190
f 32/107/193 30/108/173 97/133/176 105/141/194
f 33/27/191 32/107/195 105/141/196 104/140/192
f 27/90/166 29/89/169 95/131/172 94/130/167
f 28/109/174 26/110/177 99/135/180 98/134/175
f 90/126/160 91/127/159 109/143/197 108/142/198
f 92/128/164 93/129/163 113/145/199 112/144/200
f 93/129/168 94/130/167 114/146/201 113/145/202
f 95/131/172 96/132/171 120/148/203 119/147/204
f 97/133/176 98/134/175 127/150/205 126/149/206
f 99/135/180 100/136/179 131/152/207 130/151/208
f 100/136/182 90/126/160 108/142/198 131/152/209
f 91/127/159 92/128/164 112/144/200 109/143/197
f 102/137/186 101/138/185 132/154/210 133/153/211
f 96/132/171 102/137/188 133/153/212 120/148/203
f 101/138/185 103/139/190 134/155/213 132/154/210
f 103/139/190 104/140/192 135/156/214 134/155/213
f 105/141/194 97/133/176 126/149/206 136/157/215
f 104/140/192 105/141/196 136/157/216 135/156/214
f 94/130/167 95/131/172 119/147/204 114/146/201
f 98/134/175 99/135/180 130/151/208 127/150/205
